<svg xmlns="http://www.w3.org/2000/svg" viewBox="0 0 64 64" width="64" height="64" role="img" aria-label="Broken ring favicon">
  <rect x="0" y="0" width="64" height="64" rx="14" fill="#0F4A54"/>
  <path d="M 54.9 43.2 A 25.5 25.5 0 0 1 13.8 49.8" fill="none" stroke="#F7F5EF" stroke-width="2.8" stroke-linecap="round"/>
  <path d="M 8.8 42.5 A 25.5 25.5 0 1 1 57.4 34.7" fill="none" stroke="#F7F5EF" stroke-width="2.8" stroke-linecap="round"/>
  <g stroke="#F7F5EF" stroke-width="1.4" stroke-linecap="round" opacity="0.9">
    <line x1="17.3" y1="19.2" x2="23.0" y2="44.3"/>
    <line x1="17.3" y1="19.2" x2="41.0" y2="45.0"/>
    <line x1="32.0" y1="14.7" x2="23.0" y2="44.3"/>
    <line x1="32.0" y1="14.7" x2="41.0" y2="45.0"/>
    <line x1="46.7" y1="19.2" x2="23.0" y2="44.3"/>
    <line x1="46.7" y1="19.2" x2="41.0" y2="45.0"/>
  </g>
  <polyline points="2.6,49.9 19.2,42.9 33.3,48.0 61.4,37.1" fill="none" stroke="#C1802B" stroke-width="3.2" stroke-linecap="round" stroke-linejoin="round"/>
  <g fill="#F7F5EF">
    <circle cx="17.3" cy="19.2" r="3.0"/>
    <circle cx="32.0" cy="14.7" r="3.0"/>
    <circle cx="46.7" cy="19.2" r="3.0"/>
  </g>
</svg>
